<svg xmlns="http://www.w3.org/2000/svg" viewBox="0 0 512 512" role="img" aria-label="Flua Gestão">
  <defs>
    <linearGradient id="g" x1="0" y1="0" x2="1" y2="1">
      <stop offset="0" stop-color="#f2f2f2"/>
      <stop offset="1" stop-color="#b8b8b8"/>
    </linearGradient>
  </defs>
  <path d="M 374 309 L 371 307 L 363 307 L 344 313 L 329 320 L 312 331 L 298 345 L 293 356 L 293 365 L 295 371 L 301 381 L 300 382 L 279 383 L 259 389 L 239 399 L 225 409 L 211 422 L 194 443 L 180 466 L 168 490 L 171 492 L 180 494 L 213 494 L 214 493 L 238 491 L 263 485 L 267 485 L 296 475 L 314 466 L 333 453 L 351 435 L 358 426 L 367 412 L 378 386 L 382 366 L 382 359 L 383 358 L 383 342 L 382 341 L 382 333 L 379 319 Z" fill="url(#g)"/>
  <path d="M 30 182 L 28 186 L 28 193 L 27 194 L 27 218 L 28 219 L 29 241 L 35 272 L 41 291 L 50 312 L 60 328 L 70 340 L 89 357 L 104 367 L 116 373 L 133 379 L 138 379 L 143 381 L 154 382 L 155 383 L 176 383 L 177 382 L 189 381 L 201 377 L 206 371 L 202 353 L 194 334 L 180 312 L 164 297 L 153 293 L 148 293 L 141 295 L 130 302 L 129 301 L 129 283 L 125 266 L 115 245 L 103 229 L 86 213 L 69 201 L 33 182 Z" fill="url(#g)"/>
  <path d="M 318 146 L 314 151 L 314 159 L 317 167 L 318 174 L 325 191 L 338 212 L 348 223 L 355 228 L 362 231 L 373 231 L 379 229 L 387 224 L 388 225 L 389 246 L 392 256 L 392 260 L 399 278 L 410 295 L 421 307 L 435 318 L 463 335 L 481 343 L 484 339 L 485 329 L 486 328 L 486 286 L 485 285 L 485 274 L 481 255 L 481 249 L 475 227 L 470 214 L 464 202 L 451 184 L 439 172 L 429 164 L 411 153 L 394 146 L 379 142 L 365 141 L 364 140 L 334 141 L 333 142 L 328 142 Z" fill="url(#g)"/>
  <path d="M 369 17 L 363 14 L 336 12 L 335 13 L 308 14 L 307 15 L 301 15 L 300 16 L 294 16 L 293 17 L 287 17 L 272 20 L 268 22 L 264 22 L 240 29 L 217 39 L 200 49 L 186 60 L 173 73 L 158 93 L 148 111 L 141 129 L 135 158 L 135 183 L 136 184 L 137 197 L 142 211 L 146 215 L 149 216 L 163 213 L 174 208 L 179 207 L 195 199 L 208 190 L 221 177 L 225 170 L 227 163 L 225 152 L 222 146 L 217 140 L 218 139 L 231 139 L 232 138 L 245 137 L 264 131 L 286 120 L 308 104 L 326 86 L 339 70 L 356 44 L 368 22 Z" fill="url(#g)"/>
</svg>
